<svg xmlns="http://www.w3.org/2000/svg" width="156" height="168" viewBox="0 0 156 168">
  <defs>
    <style>
    .rig { animation: bob 3.2s ease-in-out infinite; transform-origin: center; }
    @keyframes bob { 0%,100% { transform: translateY(0); } 50% { transform: translateY(-4.800000000000001px); } }
    .ant { animation: blink 3.2s steps(1) infinite; }
    @keyframes blink { 0%,88%,100% { fill: #B4231C; } 90%,98% { fill: #6A6A6A; } }
    </style>

  </defs>
  <g class="rig">
    <rect x="72" y="0" width="12" height="12" fill="#B4231C" class="ant"/>
    <rect x="72" y="12" width="12" height="12" fill="#EDEDED" class="body"/>
    <rect x="24" y="24" width="12" height="12" fill="#EDEDED" class="body"/>
    <rect x="36" y="24" width="12" height="12" fill="#EDEDED" class="body"/>
    <rect x="48" y="24" width="12" height="12" fill="#EDEDED" class="body"/>
    <rect x="60" y="24" width="12" height="12" fill="#EDEDED" class="body"/>
    <rect x="72" y="24" width="12" height="12" fill="#EDEDED" class="body"/>
    <rect x="84" y="24" width="12" height="12" fill="#EDEDED" class="body"/>
    <rect x="96" y="24" width="12" height="12" fill="#EDEDED" class="body"/>
    <rect x="12" y="36" width="12" height="12" fill="#EDEDED" class="body"/>
    <rect x="24" y="36" width="12" height="12" fill="#EDEDED" class="body"/>
    <rect x="36" y="36" width="12" height="12" fill="#EDEDED" class="body"/>
    <rect x="48" y="36" width="12" height="12" fill="#EDEDED" class="body"/>
    <rect x="60" y="36" width="12" height="12" fill="#EDEDED" class="body"/>
    <rect x="72" y="36" width="12" height="12" fill="#EDEDED" class="body"/>
    <rect x="84" y="36" width="12" height="12" fill="#EDEDED" class="body"/>
    <rect x="96" y="36" width="12" height="12" fill="#EDEDED" class="body"/>
    <rect x="108" y="36" width="12" height="12" fill="#EDEDED" class="body"/>
    <rect x="12" y="48" width="12" height="12" fill="#EDEDED" class="body"/>
    <rect x="108" y="48" width="12" height="12" fill="#EDEDED" class="body"/>
    <rect x="12" y="60" width="12" height="12" fill="#EDEDED" class="body"/>
    <rect x="36" y="60" width="12" height="12" fill="#EDEDED" class="eye"/>
    <rect x="48" y="60" width="12" height="12" fill="#EDEDED" class="eye"/>
    <rect x="72" y="60" width="12" height="12" fill="#EDEDED" class="eye"/>
    <rect x="84" y="60" width="12" height="12" fill="#EDEDED" class="eye"/>
    <rect x="108" y="60" width="12" height="12" fill="#EDEDED" class="body"/>
    <rect x="12" y="72" width="12" height="12" fill="#EDEDED" class="body"/>
    <rect x="36" y="72" width="12" height="12" fill="#EDEDED" class="eye"/>
    <rect x="48" y="72" width="12" height="12" fill="#EDEDED" class="eye"/>
    <rect x="72" y="72" width="12" height="12" fill="#EDEDED" class="eye"/>
    <rect x="84" y="72" width="12" height="12" fill="#EDEDED" class="eye"/>
    <rect x="108" y="72" width="12" height="12" fill="#EDEDED" class="body"/>
    <rect x="12" y="84" width="12" height="12" fill="#EDEDED" class="body"/>
    <rect x="24" y="84" width="12" height="12" fill="#EDEDED" class="body"/>
    <rect x="36" y="84" width="12" height="12" fill="#EDEDED" class="body"/>
    <rect x="48" y="84" width="12" height="12" fill="#EDEDED" class="body"/>
    <rect x="60" y="84" width="12" height="12" fill="#EDEDED" class="body"/>
    <rect x="72" y="84" width="12" height="12" fill="#EDEDED" class="body"/>
    <rect x="84" y="84" width="12" height="12" fill="#EDEDED" class="body"/>
    <rect x="96" y="84" width="12" height="12" fill="#EDEDED" class="body"/>
    <rect x="108" y="84" width="12" height="12" fill="#EDEDED" class="body"/>
    <rect x="36" y="96" width="12" height="12" fill="#EDEDED" class="body"/>
    <rect x="48" y="96" width="12" height="12" fill="#EDEDED" class="body"/>
    <rect x="60" y="96" width="12" height="12" fill="#EDEDED" class="body"/>
    <rect x="72" y="96" width="12" height="12" fill="#EDEDED" class="body"/>
    <rect x="84" y="96" width="12" height="12" fill="#EDEDED" class="body"/>
    <rect x="12" y="108" width="12" height="12" fill="#EDEDED" class="body"/>
    <rect x="24" y="108" width="12" height="12" fill="#EDEDED" class="body"/>
    <rect x="36" y="108" width="12" height="12" fill="#EDEDED" class="body"/>
    <rect x="48" y="108" width="12" height="12" fill="#EDEDED" class="body"/>
    <rect x="60" y="108" width="12" height="12" fill="#EDEDED" class="body"/>
    <rect x="72" y="108" width="12" height="12" fill="#EDEDED" class="body"/>
    <rect x="84" y="108" width="12" height="12" fill="#EDEDED" class="body"/>
    <rect x="96" y="108" width="12" height="12" fill="#EDEDED" class="body"/>
    <rect x="108" y="108" width="12" height="12" fill="#EDEDED" class="body"/>
    <rect x="0" y="120" width="12" height="12" fill="#EDEDED" class="body"/>
    <rect x="12" y="120" width="12" height="12" fill="#EDEDED" class="body"/>
    <rect x="36" y="120" width="12" height="12" fill="#EDEDED" class="body"/>
    <rect x="48" y="120" width="12" height="12" fill="#EDEDED" class="body"/>
    <rect x="60" y="120" width="12" height="12" fill="#EDEDED" class="body"/>
    <rect x="72" y="120" width="12" height="12" fill="#EDEDED" class="body"/>
    <rect x="84" y="120" width="12" height="12" fill="#EDEDED" class="body"/>
    <rect x="108" y="120" width="12" height="12" fill="#EDEDED" class="body"/>
    <rect x="120" y="120" width="12" height="12" fill="#EDEDED" class="body"/>
    <rect x="0" y="132" width="12" height="12" fill="#EDEDED" class="body"/>
    <rect x="12" y="132" width="12" height="12" fill="#EDEDED" class="body"/>
    <rect x="36" y="132" width="12" height="12" fill="#EDEDED" class="body"/>
    <rect x="48" y="132" width="12" height="12" fill="#EDEDED" class="body"/>
    <rect x="60" y="132" width="12" height="12" fill="#EDEDED" class="body"/>
    <rect x="72" y="132" width="12" height="12" fill="#EDEDED" class="body"/>
    <rect x="84" y="132" width="12" height="12" fill="#EDEDED" class="body"/>
    <rect x="108" y="132" width="12" height="12" fill="#EDEDED" class="body"/>
    <rect x="120" y="132" width="12" height="12" fill="#EDEDED" class="body"/>
    <rect x="12" y="144" width="12" height="12" fill="#EDEDED" class="body"/>
    <rect x="36" y="144" width="12" height="12" fill="#EDEDED" class="body"/>
    <rect x="48" y="144" width="12" height="12" fill="#EDEDED" class="body"/>
    <rect x="60" y="144" width="12" height="12" fill="#EDEDED" class="body"/>
    <rect x="72" y="144" width="12" height="12" fill="#EDEDED" class="body"/>
    <rect x="84" y="144" width="12" height="12" fill="#EDEDED" class="body"/>
    <rect x="108" y="144" width="12" height="12" fill="#EDEDED" class="body"/>
    <rect x="24" y="156" width="12" height="12" fill="#EDEDED" class="body"/>
    <rect x="36" y="156" width="12" height="12" fill="#EDEDED" class="body"/>
    <rect x="84" y="156" width="12" height="12" fill="#EDEDED" class="body"/>
    <rect x="96" y="156" width="12" height="12" fill="#EDEDED" class="body"/>
  </g>
</svg>
